<svg xmlns="http://www.w3.org/2000/svg" xmlns:xlink="http://www.w3.org/1999/xlink" width="500" zoomAndPan="magnify" viewBox="0 0 375 374.999991" height="500" preserveAspectRatio="xMidYMid meet" version="1.0"><defs><g/><clipPath id="4b6dc6bb13"><path d="M 40.558594 79.5 L 334.808594 79.5 L 334.808594 303.640625 L 40.558594 303.640625 Z M 40.558594 79.5 " clip-rule="nonzero"/></clipPath><clipPath id="282f4e890e"><path d="M 332.472656 270.570312 L 322.742188 270.570312 L 322.742188 248.726562 C 322.742188 247.441406 321.699219 246.398438 320.40625 246.398438 C 319.113281 246.398438 318.070312 247.441406 318.070312 248.726562 L 318.070312 270.570312 L 57.296875 270.570312 L 57.296875 98.285156 C 57.296875 89.21875 64.65625 81.839844 73.699219 81.839844 L 82.789062 81.839844 L 82.789062 195.171875 C 72.617188 196.335938 64.691406 205 64.691406 215.488281 C 64.691406 226.765625 73.855469 235.945312 85.125 235.945312 C 96.390625 235.945312 105.558594 226.769531 105.558594 215.488281 C 105.558594 205 97.628906 196.335938 87.460938 195.171875 L 87.460938 81.839844 L 134.070312 81.839844 L 134.070312 195.171875 C 123.898438 196.335938 115.972656 205 115.972656 215.488281 C 115.972656 226.765625 125.136719 235.945312 136.40625 235.945312 C 147.671875 235.945312 156.839844 226.769531 156.839844 215.488281 C 156.839844 205 148.910156 196.335938 138.738281 195.171875 L 138.738281 81.839844 L 185.347656 81.839844 L 185.347656 195.171875 C 175.179688 196.335938 167.25 205 167.25 215.488281 C 167.25 226.765625 176.414062 235.945312 187.683594 235.945312 C 198.953125 235.945312 208.117188 226.769531 208.117188 215.488281 C 208.117188 205 200.1875 196.335938 190.019531 195.171875 L 190.019531 81.839844 L 236.625 81.839844 L 236.625 195.171875 C 226.457031 196.335938 218.527344 205 218.527344 215.488281 C 218.527344 226.765625 227.695312 235.945312 238.960938 235.945312 C 250.230469 235.945312 259.394531 226.769531 259.394531 215.488281 C 259.394531 205 251.46875 196.335938 241.296875 195.171875 L 241.296875 81.839844 L 267.269531 81.839844 L 292.789062 192.742188 C 283.140625 196.164062 277.355469 206.386719 279.707031 216.605469 C 280.933594 221.945312 284.167969 226.484375 288.8125 229.382812 C 292.09375 231.429688 295.804688 232.484375 299.578125 232.484375 C 301.117188 232.484375 302.671875 232.304688 304.207031 231.953125 C 315.183594 229.417969 322.058594 218.414062 319.53125 207.421875 C 318.300781 202.082031 315.066406 197.546875 310.421875 194.648438 C 306.46875 192.183594 301.894531 191.167969 297.335938 191.695312 L 272.058594 81.839844 L 301.664062 81.839844 C 310.710938 81.839844 318.066406 89.21875 318.066406 98.285156 L 318.066406 173.1875 C 318.066406 174.472656 319.113281 175.515625 320.402344 175.515625 C 321.695312 175.515625 322.738281 174.472656 322.738281 173.1875 L 322.738281 98.285156 C 322.738281 86.648438 313.285156 77.183594 301.664062 77.183594 L 73.699219 77.183594 C 62.082031 77.183594 52.625 86.648438 52.625 98.285156 L 52.625 270.570312 L 42.894531 270.570312 C 41.601562 270.570312 40.558594 271.613281 40.558594 272.898438 L 40.558594 303.117188 C 40.558594 304.402344 41.601562 305.445312 42.894531 305.445312 L 332.472656 305.445312 C 333.765625 305.445312 334.808594 304.402344 334.808594 303.117188 L 334.808594 272.898438 C 334.808594 271.613281 333.765625 270.570312 332.472656 270.570312 Z M 100.886719 215.488281 C 100.886719 224.199219 93.816406 231.289062 85.125 231.289062 C 76.433594 231.289062 69.359375 224.199219 69.359375 215.488281 C 69.359375 206.773438 76.433594 199.683594 85.125 199.683594 C 93.816406 199.683594 100.886719 206.777344 100.886719 215.488281 Z M 152.167969 215.488281 C 152.167969 224.199219 145.097656 231.289062 136.40625 231.289062 C 127.710938 231.289062 120.640625 224.199219 120.640625 215.488281 C 120.640625 206.773438 127.710938 199.683594 136.40625 199.683594 C 145.097656 199.683594 152.167969 206.777344 152.167969 215.488281 Z M 203.445312 215.488281 C 203.445312 224.199219 196.375 231.289062 187.683594 231.289062 C 178.992188 231.289062 171.921875 224.199219 171.921875 215.488281 C 171.921875 206.773438 178.992188 199.683594 187.683594 199.683594 C 196.375 199.683594 203.445312 206.777344 203.445312 215.488281 Z M 254.726562 215.488281 C 254.726562 224.199219 247.652344 231.289062 238.960938 231.289062 C 230.269531 231.289062 223.199219 224.199219 223.199219 215.488281 C 223.199219 206.773438 230.269531 199.683594 238.960938 199.683594 C 247.652344 199.683594 254.726562 206.777344 254.726562 215.488281 Z M 307.945312 198.59375 C 311.53125 200.832031 314.027344 204.335938 314.980469 208.460938 C 316.929688 216.953125 311.628906 225.453125 303.15625 227.410156 C 299.0625 228.351562 294.851562 227.648438 291.289062 225.429688 C 287.703125 223.191406 285.207031 219.6875 284.253906 215.5625 C 282.304688 207.070312 287.605469 198.570312 296.078125 196.617188 C 300.175781 195.675781 304.386719 196.375 307.945312 198.59375 Z M 330.136719 300.789062 L 45.230469 300.789062 L 45.230469 275.230469 L 330.136719 275.230469 Z M 318.695312 184.367188 C 319.765625 185.085938 320.046875 186.53125 319.328125 187.597656 C 318.882812 188.269531 318.140625 188.632812 317.390625 188.632812 C 316.941406 188.632812 316.488281 188.503906 316.089844 188.234375 C 312.742188 185.996094 308.886719 184.460938 304.9375 183.800781 C 303.664062 183.585938 302.808594 182.386719 303.023438 181.117188 C 303.234375 179.851562 304.417969 178.992188 305.710938 179.207031 C 310.3125 179.976562 314.800781 181.761719 318.695312 184.367188 Z M 332.597656 204.546875 C 332.707031 205.03125 332.8125 205.519531 332.898438 206.007812 C 333.128906 207.273438 332.285156 208.484375 331.015625 208.714844 C 330.875 208.738281 330.734375 208.75 330.597656 208.75 C 329.488281 208.75 328.503906 207.964844 328.300781 206.835938 C 328.226562 206.421875 328.144531 206.007812 328.042969 205.589844 C 327.21875 202 325.746094 198.660156 323.660156 195.660156 C 322.925781 194.601562 323.191406 193.152344 324.25 192.417969 C 325.304688 191.683594 326.765625 191.945312 327.5 193.003906 C 329.921875 196.496094 331.640625 200.378906 332.597656 204.546875 Z M 331.179688 213.175781 C 332.464844 213.320312 333.386719 214.472656 333.242188 215.746094 C 332.722656 220.351562 331.273438 224.726562 328.933594 228.746094 C 328.5 229.492188 327.71875 229.90625 326.910156 229.90625 C 326.515625 229.90625 326.109375 229.804688 325.742188 229.589844 C 324.625 228.945312 324.246094 227.519531 324.894531 226.40625 C 326.90625 222.949219 328.15625 219.1875 328.601562 215.226562 C 328.746094 213.953125 329.925781 213.035156 331.179688 213.175781 Z M 322.167969 233.90625 C 323.015625 234.878906 322.910156 236.351562 321.933594 237.191406 C 318.160156 240.464844 313.792969 242.789062 308.953125 244.105469 C 308.75 244.160156 308.539062 244.1875 308.335938 244.1875 C 307.3125 244.1875 306.367188 243.507812 306.085938 242.46875 C 305.746094 241.226562 306.480469 239.945312 307.726562 239.609375 C 311.878906 238.480469 315.628906 236.484375 318.871094 233.675781 C 319.84375 232.832031 321.324219 232.933594 322.167969 233.90625 Z M 322.167969 233.90625 " clip-rule="nonzero"/></clipPath><linearGradient x1="63" gradientTransform="matrix(2.335306, 0, 0, 2.329229, 40.559235, 77.182098)" y1="0.995578" x2="63" gradientUnits="userSpaceOnUse" y2="97.224305" id="0af2ffc98c"><stop stop-opacity="1" stop-color="rgb(99.285889%, 99.668884%, 99.935913%)" offset="0"/><stop stop-opacity="1" stop-color="rgb(99.015808%, 99.543762%, 99.911499%)" offset="0.00390625"/><stop stop-opacity="1" stop-color="rgb(98.747253%, 99.420166%, 99.887085%)" offset="0.0078125"/><stop stop-opacity="1" stop-color="rgb(98.477173%, 99.295044%, 99.862671%)" offset="0.0117188"/><stop stop-opacity="1" stop-color="rgb(98.208618%, 99.169922%, 99.838257%)" offset="0.015625"/><stop stop-opacity="1" stop-color="rgb(97.938538%, 99.0448%, 99.813843%)" offset="0.0195312"/><stop stop-opacity="1" stop-color="rgb(97.669983%, 98.921204%, 99.790955%)" offset="0.0234375"/><stop stop-opacity="1" stop-color="rgb(97.399902%, 98.796082%, 99.766541%)" offset="0.0273438"/><stop stop-opacity="1" stop-color="rgb(97.131348%, 98.672485%, 99.742126%)" offset="0.03125"/><stop stop-opacity="1" stop-color="rgb(96.861267%, 98.547363%, 99.717712%)" offset="0.0351562"/><stop stop-opacity="1" stop-color="rgb(96.592712%, 98.422241%, 99.693298%)" offset="0.0390625"/><stop stop-opacity="1" stop-color="rgb(96.324158%, 98.297119%, 99.668884%)" offset="0.0429688"/><stop stop-opacity="1" stop-color="rgb(96.055603%, 98.173523%, 99.645996%)" offset="0.046875"/><stop stop-opacity="1" stop-color="rgb(95.785522%, 98.048401%, 99.621582%)" offset="0.0507813"/><stop stop-opacity="1" stop-color="rgb(95.516968%, 97.923279%, 99.597168%)" offset="0.0546875"/><stop stop-opacity="1" stop-color="rgb(95.246887%, 97.798157%, 99.572754%)" offset="0.0585938"/><stop stop-opacity="1" stop-color="rgb(94.978333%, 97.674561%, 99.54834%)" offset="0.0625"/><stop stop-opacity="1" stop-color="rgb(94.708252%, 97.549438%, 99.523926%)" offset="0.0664063"/><stop stop-opacity="1" stop-color="rgb(94.439697%, 97.425842%, 99.499512%)" offset="0.0703125"/><stop stop-opacity="1" stop-color="rgb(94.169617%, 97.30072%, 99.475098%)" offset="0.0742188"/><stop stop-opacity="1" stop-color="rgb(93.901062%, 97.175598%, 99.452209%)" offset="0.078125"/><stop stop-opacity="1" stop-color="rgb(93.630981%, 97.050476%, 99.427795%)" offset="0.0820313"/><stop stop-opacity="1" stop-color="rgb(93.362427%, 96.92688%, 99.403381%)" offset="0.0859375"/><stop stop-opacity="1" stop-color="rgb(93.092346%, 96.801758%, 99.378967%)" offset="0.0898438"/><stop stop-opacity="1" stop-color="rgb(92.823792%, 96.676636%, 99.354553%)" offset="0.09375"/><stop stop-opacity="1" stop-color="rgb(92.553711%, 96.551514%, 99.330139%)" offset="0.0976562"/><stop stop-opacity="1" stop-color="rgb(92.285156%, 96.427917%, 99.307251%)" offset="0.101563"/><stop stop-opacity="1" stop-color="rgb(92.015076%, 96.302795%, 99.282837%)" offset="0.105469"/><stop stop-opacity="1" stop-color="rgb(91.746521%, 96.179199%, 99.258423%)" offset="0.109375"/><stop stop-opacity="1" stop-color="rgb(91.47644%, 96.054077%, 99.234009%)" offset="0.113281"/><stop stop-opacity="1" stop-color="rgb(91.207886%, 95.928955%, 99.209595%)" offset="0.117188"/><stop stop-opacity="1" stop-color="rgb(90.937805%, 95.803833%, 99.185181%)" offset="0.121094"/><stop stop-opacity="1" stop-color="rgb(90.66925%, 95.680237%, 99.162292%)" offset="0.125"/><stop stop-opacity="1" stop-color="rgb(90.39917%, 95.555115%, 99.137878%)" offset="0.128906"/><stop stop-opacity="1" stop-color="rgb(90.130615%, 95.429993%, 99.113464%)" offset="0.132813"/><stop stop-opacity="1" stop-color="rgb(89.860535%, 95.304871%, 99.08905%)" offset="0.136719"/><stop stop-opacity="1" stop-color="rgb(89.59198%, 95.181274%, 99.064636%)" offset="0.140625"/><stop stop-opacity="1" stop-color="rgb(89.321899%, 95.056152%, 99.040222%)" offset="0.144531"/><stop stop-opacity="1" stop-color="rgb(89.053345%, 94.932556%, 99.017334%)" offset="0.148437"/><stop stop-opacity="1" stop-color="rgb(88.78479%, 94.807434%, 98.99292%)" offset="0.152344"/><stop stop-opacity="1" stop-color="rgb(88.516235%, 94.682312%, 98.968506%)" offset="0.15625"/><stop stop-opacity="1" stop-color="rgb(88.246155%, 94.55719%, 98.944092%)" offset="0.160156"/><stop stop-opacity="1" stop-color="rgb(87.9776%, 94.433594%, 98.919678%)" offset="0.164062"/><stop stop-opacity="1" stop-color="rgb(87.70752%, 94.308472%, 98.895264%)" offset="0.167969"/><stop stop-opacity="1" stop-color="rgb(87.438965%, 94.18335%, 98.872375%)" offset="0.171875"/><stop stop-opacity="1" stop-color="rgb(87.168884%, 94.058228%, 98.847961%)" offset="0.175781"/><stop stop-opacity="1" stop-color="rgb(86.90033%, 93.934631%, 98.823547%)" offset="0.179688"/><stop stop-opacity="1" stop-color="rgb(86.630249%, 93.809509%, 98.799133%)" offset="0.183594"/><stop stop-opacity="1" stop-color="rgb(86.361694%, 93.685913%, 98.774719%)" offset="0.1875"/><stop stop-opacity="1" stop-color="rgb(86.091614%, 93.560791%, 98.750305%)" offset="0.191406"/><stop stop-opacity="1" stop-color="rgb(85.823059%, 93.435669%, 98.727417%)" offset="0.195312"/><stop stop-opacity="1" stop-color="rgb(85.552979%, 93.310547%, 98.703003%)" offset="0.199219"/><stop stop-opacity="1" stop-color="rgb(85.284424%, 93.186951%, 98.678589%)" offset="0.203125"/><stop stop-opacity="1" stop-color="rgb(85.014343%, 93.061829%, 98.654175%)" offset="0.207031"/><stop stop-opacity="1" stop-color="rgb(84.745789%, 92.938232%, 98.629761%)" offset="0.210937"/><stop stop-opacity="1" stop-color="rgb(84.475708%, 92.81311%, 98.605347%)" offset="0.214844"/><stop stop-opacity="1" stop-color="rgb(84.207153%, 92.687988%, 98.582458%)" offset="0.21875"/><stop stop-opacity="1" stop-color="rgb(83.937073%, 92.562866%, 98.558044%)" offset="0.222656"/><stop stop-opacity="1" stop-color="rgb(83.668518%, 92.43927%, 98.53363%)" offset="0.226562"/><stop stop-opacity="1" stop-color="rgb(83.398438%, 92.314148%, 98.509216%)" offset="0.230469"/><stop stop-opacity="1" stop-color="rgb(83.129883%, 92.189026%, 98.484802%)" offset="0.234375"/><stop stop-opacity="1" stop-color="rgb(82.859802%, 92.063904%, 98.460388%)" offset="0.238281"/><stop stop-opacity="1" stop-color="rgb(82.591248%, 91.940308%, 98.4375%)" offset="0.242188"/><stop stop-opacity="1" stop-color="rgb(82.321167%, 91.815186%, 98.413086%)" offset="0.246094"/><stop stop-opacity="1" stop-color="rgb(82.052612%, 91.691589%, 98.388672%)" offset="0.25"/><stop stop-opacity="1" stop-color="rgb(81.784058%, 91.566467%, 98.364258%)" offset="0.253906"/><stop stop-opacity="1" stop-color="rgb(81.515503%, 91.441345%, 98.339844%)" offset="0.257812"/><stop stop-opacity="1" stop-color="rgb(81.245422%, 91.316223%, 98.31543%)" offset="0.261719"/><stop stop-opacity="1" stop-color="rgb(80.976868%, 91.192627%, 98.292542%)" offset="0.265625"/><stop stop-opacity="1" stop-color="rgb(80.706787%, 91.067505%, 98.268127%)" offset="0.269531"/><stop stop-opacity="1" stop-color="rgb(80.438232%, 90.942383%, 98.243713%)" offset="0.273438"/><stop stop-opacity="1" stop-color="rgb(80.168152%, 90.817261%, 98.219299%)" offset="0.277344"/><stop stop-opacity="1" stop-color="rgb(79.899597%, 90.693665%, 98.194885%)" offset="0.28125"/><stop stop-opacity="1" stop-color="rgb(79.629517%, 90.568542%, 98.170471%)" offset="0.285156"/><stop stop-opacity="1" stop-color="rgb(79.360962%, 90.444946%, 98.147583%)" offset="0.289062"/><stop stop-opacity="1" stop-color="rgb(79.090881%, 90.319824%, 98.123169%)" offset="0.292969"/><stop stop-opacity="1" stop-color="rgb(78.822327%, 90.194702%, 98.098755%)" offset="0.296875"/><stop stop-opacity="1" stop-color="rgb(78.552246%, 90.06958%, 98.074341%)" offset="0.300781"/><stop stop-opacity="1" stop-color="rgb(78.283691%, 89.945984%, 98.049927%)" offset="0.304687"/><stop stop-opacity="1" stop-color="rgb(78.013611%, 89.820862%, 98.025513%)" offset="0.308594"/><stop stop-opacity="1" stop-color="rgb(77.745056%, 89.69574%, 98.002625%)" offset="0.3125"/><stop stop-opacity="1" stop-color="rgb(77.474976%, 89.570618%, 97.97821%)" offset="0.316406"/><stop stop-opacity="1" stop-color="rgb(77.206421%, 89.447021%, 97.953796%)" offset="0.320312"/><stop stop-opacity="1" stop-color="rgb(76.93634%, 89.321899%, 97.929382%)" offset="0.324219"/><stop stop-opacity="1" stop-color="rgb(76.667786%, 89.198303%, 97.904968%)" offset="0.328125"/><stop stop-opacity="1" stop-color="rgb(76.397705%, 89.073181%, 97.880554%)" offset="0.332031"/><stop stop-opacity="1" stop-color="rgb(76.12915%, 88.948059%, 97.857666%)" offset="0.335937"/><stop stop-opacity="1" stop-color="rgb(75.85907%, 88.822937%, 97.833252%)" offset="0.339844"/><stop stop-opacity="1" stop-color="rgb(75.590515%, 88.699341%, 97.808838%)" offset="0.34375"/><stop stop-opacity="1" stop-color="rgb(75.320435%, 88.574219%, 97.784424%)" offset="0.347656"/><stop stop-opacity="1" stop-color="rgb(75.05188%, 88.449097%, 97.76001%)" offset="0.351562"/><stop stop-opacity="1" stop-color="rgb(74.781799%, 88.323975%, 97.735596%)" offset="0.355469"/><stop stop-opacity="1" stop-color="rgb(74.513245%, 88.200378%, 97.712708%)" offset="0.359375"/><stop stop-opacity="1" stop-color="rgb(74.24469%, 88.075256%, 97.688293%)" offset="0.363281"/><stop stop-opacity="1" stop-color="rgb(73.976135%, 87.95166%, 97.663879%)" offset="0.367188"/><stop stop-opacity="1" stop-color="rgb(73.706055%, 87.826538%, 97.639465%)" offset="0.371094"/><stop stop-opacity="1" stop-color="rgb(73.4375%, 87.701416%, 97.615051%)" offset="0.375"/><stop stop-opacity="1" stop-color="rgb(73.167419%, 87.576294%, 97.590637%)" offset="0.378906"/><stop stop-opacity="1" stop-color="rgb(72.898865%, 87.452698%, 97.567749%)" offset="0.382812"/><stop stop-opacity="1" stop-color="rgb(72.628784%, 87.327576%, 97.543335%)" offset="0.386719"/><stop stop-opacity="1" stop-color="rgb(72.360229%, 87.202454%, 97.518921%)" offset="0.390625"/><stop stop-opacity="1" stop-color="rgb(72.090149%, 87.077332%, 97.494507%)" offset="0.394531"/><stop stop-opacity="1" stop-color="rgb(71.821594%, 86.953735%, 97.470093%)" offset="0.398438"/><stop stop-opacity="1" stop-color="rgb(71.551514%, 86.828613%, 97.445679%)" offset="0.402344"/><stop stop-opacity="1" stop-color="rgb(71.282959%, 86.705017%, 97.422791%)" offset="0.40625"/><stop stop-opacity="1" stop-color="rgb(71.012878%, 86.579895%, 97.398376%)" offset="0.410156"/><stop stop-opacity="1" stop-color="rgb(70.744324%, 86.454773%, 97.373962%)" offset="0.414062"/><stop stop-opacity="1" stop-color="rgb(70.474243%, 86.329651%, 97.349548%)" offset="0.417969"/><stop stop-opacity="1" stop-color="rgb(70.205688%, 86.206055%, 97.325134%)" offset="0.421875"/><stop stop-opacity="1" stop-color="rgb(69.935608%, 86.080933%, 97.30072%)" offset="0.425781"/><stop stop-opacity="1" stop-color="rgb(69.667053%, 85.957336%, 97.277832%)" offset="0.429687"/><stop stop-opacity="1" stop-color="rgb(69.396973%, 85.832214%, 97.253418%)" offset="0.433594"/><stop stop-opacity="1" stop-color="rgb(69.128418%, 85.707092%, 97.229004%)" offset="0.4375"/><stop stop-opacity="1" stop-color="rgb(68.858337%, 85.58197%, 97.20459%)" offset="0.441406"/><stop stop-opacity="1" stop-color="rgb(68.589783%, 85.458374%, 97.180176%)" offset="0.445312"/><stop stop-opacity="1" stop-color="rgb(68.319702%, 85.333252%, 97.155762%)" offset="0.449219"/><stop stop-opacity="1" stop-color="rgb(68.051147%, 85.20813%, 97.132874%)" offset="0.453125"/><stop stop-opacity="1" stop-color="rgb(67.781067%, 85.083008%, 97.108459%)" offset="0.457031"/><stop stop-opacity="1" stop-color="rgb(67.512512%, 84.959412%, 97.084045%)" offset="0.460937"/><stop stop-opacity="1" stop-color="rgb(67.242432%, 84.83429%, 97.059631%)" offset="0.464844"/><stop stop-opacity="1" stop-color="rgb(66.973877%, 84.710693%, 97.035217%)" offset="0.46875"/><stop stop-opacity="1" stop-color="rgb(66.705322%, 84.585571%, 97.010803%)" offset="0.472656"/><stop stop-opacity="1" stop-color="rgb(66.436768%, 84.460449%, 96.987915%)" offset="0.476562"/><stop stop-opacity="1" stop-color="rgb(66.166687%, 84.335327%, 96.963501%)" offset="0.480469"/><stop stop-opacity="1" stop-color="rgb(65.898132%, 84.211731%, 96.939087%)" offset="0.484375"/><stop stop-opacity="1" stop-color="rgb(65.628052%, 84.086609%, 96.914673%)" offset="0.488281"/><stop stop-opacity="1" stop-color="rgb(65.359497%, 83.961487%, 96.890259%)" offset="0.492187"/><stop stop-opacity="1" stop-color="rgb(65.089417%, 83.836365%, 96.865845%)" offset="0.496094"/><stop stop-opacity="1" stop-color="rgb(64.820862%, 83.712769%, 96.841431%)" offset="0.5"/><stop stop-opacity="1" stop-color="rgb(64.550781%, 83.587646%, 96.817017%)" offset="0.503906"/><stop stop-opacity="1" stop-color="rgb(64.282227%, 83.46405%, 96.794128%)" offset="0.507812"/><stop stop-opacity="1" stop-color="rgb(64.012146%, 83.338928%, 96.769714%)" offset="0.511719"/><stop stop-opacity="1" stop-color="rgb(63.743591%, 83.213806%, 96.7453%)" offset="0.515625"/><stop stop-opacity="1" stop-color="rgb(63.473511%, 83.088684%, 96.720886%)" offset="0.519531"/><stop stop-opacity="1" stop-color="rgb(63.204956%, 82.965088%, 96.696472%)" offset="0.523437"/><stop stop-opacity="1" stop-color="rgb(62.934875%, 82.839966%, 96.672058%)" offset="0.527344"/><stop stop-opacity="1" stop-color="rgb(62.666321%, 82.714844%, 96.64917%)" offset="0.53125"/><stop stop-opacity="1" stop-color="rgb(62.39624%, 82.589722%, 96.624756%)" offset="0.535156"/><stop stop-opacity="1" stop-color="rgb(62.127686%, 82.466125%, 96.600342%)" offset="0.539063"/><stop stop-opacity="1" stop-color="rgb(61.857605%, 82.341003%, 96.575928%)" offset="0.542969"/><stop stop-opacity="1" stop-color="rgb(61.58905%, 82.217407%, 96.551514%)" offset="0.546875"/><stop stop-opacity="1" stop-color="rgb(61.31897%, 82.092285%, 96.5271%)" offset="0.550781"/><stop stop-opacity="1" stop-color="rgb(61.050415%, 81.967163%, 96.504211%)" offset="0.554688"/><stop stop-opacity="1" stop-color="rgb(60.780334%, 81.842041%, 96.479797%)" offset="0.558594"/><stop stop-opacity="1" stop-color="rgb(60.51178%, 81.718445%, 96.455383%)" offset="0.5625"/><stop stop-opacity="1" stop-color="rgb(60.241699%, 81.593323%, 96.430969%)" offset="0.566406"/><stop stop-opacity="1" stop-color="rgb(59.973145%, 81.468201%, 96.406555%)" offset="0.570312"/><stop stop-opacity="1" stop-color="rgb(59.703064%, 81.343079%, 96.382141%)" offset="0.574219"/><stop stop-opacity="1" stop-color="rgb(59.434509%, 81.219482%, 96.359253%)" offset="0.578125"/><stop stop-opacity="1" stop-color="rgb(59.165955%, 81.09436%, 96.334839%)" offset="0.582031"/><stop stop-opacity="1" stop-color="rgb(58.8974%, 80.970764%, 96.310425%)" offset="0.585937"/><stop stop-opacity="1" stop-color="rgb(58.627319%, 80.845642%, 96.286011%)" offset="0.589844"/><stop stop-opacity="1" stop-color="rgb(58.358765%, 80.72052%, 96.261597%)" offset="0.59375"/><stop stop-opacity="1" stop-color="rgb(58.088684%, 80.595398%, 96.237183%)" offset="0.597656"/><stop stop-opacity="1" stop-color="rgb(57.820129%, 80.471802%, 96.214294%)" offset="0.601562"/><stop stop-opacity="1" stop-color="rgb(57.550049%, 80.34668%, 96.18988%)" offset="0.605469"/><stop stop-opacity="1" stop-color="rgb(57.281494%, 80.223083%, 96.165466%)" offset="0.609375"/><stop stop-opacity="1" stop-color="rgb(57.011414%, 80.097961%, 96.141052%)" offset="0.613281"/><stop stop-opacity="1" stop-color="rgb(56.742859%, 79.972839%, 96.116638%)" offset="0.617187"/><stop stop-opacity="1" stop-color="rgb(56.472778%, 79.847717%, 96.092224%)" offset="0.621094"/><stop stop-opacity="1" stop-color="rgb(56.204224%, 79.724121%, 96.069336%)" offset="0.625"/><stop stop-opacity="1" stop-color="rgb(55.934143%, 79.598999%, 96.044922%)" offset="0.628906"/><stop stop-opacity="1" stop-color="rgb(55.665588%, 79.473877%, 96.020508%)" offset="0.632812"/><stop stop-opacity="1" stop-color="rgb(55.395508%, 79.348755%, 95.996094%)" offset="0.636719"/><stop stop-opacity="1" stop-color="rgb(55.126953%, 79.225159%, 95.97168%)" offset="0.640625"/><stop stop-opacity="1" stop-color="rgb(54.856873%, 79.100037%, 95.947266%)" offset="0.644531"/><stop stop-opacity="1" stop-color="rgb(54.588318%, 78.97644%, 95.924377%)" offset="0.648438"/><stop stop-opacity="1" stop-color="rgb(54.318237%, 78.851318%, 95.899963%)" offset="0.652344"/><stop stop-opacity="1" stop-color="rgb(54.049683%, 78.726196%, 95.875549%)" offset="0.65625"/><stop stop-opacity="1" stop-color="rgb(53.779602%, 78.601074%, 95.851135%)" offset="0.660156"/><stop stop-opacity="1" stop-color="rgb(53.511047%, 78.477478%, 95.826721%)" offset="0.664062"/><stop stop-opacity="1" stop-color="rgb(53.240967%, 78.352356%, 95.802307%)" offset="0.667969"/><stop stop-opacity="1" stop-color="rgb(52.972412%, 78.227234%, 95.779419%)" offset="0.671875"/><stop stop-opacity="1" stop-color="rgb(52.702332%, 78.102112%, 95.755005%)" offset="0.675781"/><stop stop-opacity="1" stop-color="rgb(52.433777%, 77.978516%, 95.730591%)" offset="0.679687"/><stop stop-opacity="1" stop-color="rgb(52.163696%, 77.853394%, 95.706177%)" offset="0.683594"/><stop stop-opacity="1" stop-color="rgb(51.895142%, 77.729797%, 95.681763%)" offset="0.6875"/><stop stop-opacity="1" stop-color="rgb(51.626587%, 77.604675%, 95.657349%)" offset="0.691406"/><stop stop-opacity="1" stop-color="rgb(51.358032%, 77.479553%, 95.63446%)" offset="0.695312"/><stop stop-opacity="1" stop-color="rgb(51.087952%, 77.354431%, 95.610046%)" offset="0.699219"/><stop stop-opacity="1" stop-color="rgb(50.819397%, 77.230835%, 95.585632%)" offset="0.703125"/><stop stop-opacity="1" stop-color="rgb(50.549316%, 77.105713%, 95.561218%)" offset="0.707031"/><stop stop-opacity="1" stop-color="rgb(50.280762%, 76.980591%, 95.536804%)" offset="0.710937"/><stop stop-opacity="1" stop-color="rgb(50.010681%, 76.855469%, 95.51239%)" offset="0.714844"/><stop stop-opacity="1" stop-color="rgb(49.742126%, 76.731873%, 95.489502%)" offset="0.71875"/><stop stop-opacity="1" stop-color="rgb(49.472046%, 76.60675%, 95.465088%)" offset="0.722656"/><stop stop-opacity="1" stop-color="rgb(49.203491%, 76.483154%, 95.440674%)" offset="0.726562"/><stop stop-opacity="1" stop-color="rgb(48.933411%, 76.358032%, 95.41626%)" offset="0.730469"/><stop stop-opacity="1" stop-color="rgb(48.664856%, 76.23291%, 95.391846%)" offset="0.734375"/><stop stop-opacity="1" stop-color="rgb(48.394775%, 76.107788%, 95.367432%)" offset="0.738281"/><stop stop-opacity="1" stop-color="rgb(48.126221%, 75.984192%, 95.344543%)" offset="0.742187"/><stop stop-opacity="1" stop-color="rgb(47.85614%, 75.85907%, 95.320129%)" offset="0.746094"/><stop stop-opacity="1" stop-color="rgb(47.587585%, 75.733948%, 95.295715%)" offset="0.75"/><stop stop-opacity="1" stop-color="rgb(47.317505%, 75.608826%, 95.271301%)" offset="0.753906"/><stop stop-opacity="1" stop-color="rgb(47.04895%, 75.485229%, 95.246887%)" offset="0.757812"/><stop stop-opacity="1" stop-color="rgb(46.77887%, 75.360107%, 95.222473%)" offset="0.761719"/><stop stop-opacity="1" stop-color="rgb(46.510315%, 75.236511%, 95.199585%)" offset="0.765625"/><stop stop-opacity="1" stop-color="rgb(46.240234%, 75.111389%, 95.175171%)" offset="0.769531"/><stop stop-opacity="1" stop-color="rgb(45.97168%, 74.986267%, 95.150757%)" offset="0.773437"/><stop stop-opacity="1" stop-color="rgb(45.701599%, 74.861145%, 95.126343%)" offset="0.777344"/><stop stop-opacity="1" stop-color="rgb(45.433044%, 74.737549%, 95.101929%)" offset="0.78125"/><stop stop-opacity="1" stop-color="rgb(45.162964%, 74.612427%, 95.077515%)" offset="0.785156"/><stop stop-opacity="1" stop-color="rgb(44.894409%, 74.487305%, 95.054626%)" offset="0.789062"/><stop stop-opacity="1" stop-color="rgb(44.624329%, 74.362183%, 95.030212%)" offset="0.792969"/><stop stop-opacity="1" stop-color="rgb(44.355774%, 74.238586%, 95.005798%)" offset="0.796875"/><stop stop-opacity="1" stop-color="rgb(44.087219%, 74.113464%, 94.981384%)" offset="0.800781"/><stop stop-opacity="1" stop-color="rgb(43.818665%, 73.989868%, 94.95697%)" offset="0.804688"/><stop stop-opacity="1" stop-color="rgb(43.548584%, 73.864746%, 94.932556%)" offset="0.808594"/><stop stop-opacity="1" stop-color="rgb(43.280029%, 73.739624%, 94.909668%)" offset="0.8125"/><stop stop-opacity="1" stop-color="rgb(43.009949%, 73.614502%, 94.885254%)" offset="0.816406"/><stop stop-opacity="1" stop-color="rgb(42.741394%, 73.490906%, 94.86084%)" offset="0.820312"/><stop stop-opacity="1" stop-color="rgb(42.471313%, 73.365784%, 94.836426%)" offset="0.824219"/><stop stop-opacity="1" stop-color="rgb(42.202759%, 73.242188%, 94.812012%)" offset="0.828125"/><stop stop-opacity="1" stop-color="rgb(41.932678%, 73.117065%, 94.787598%)" offset="0.832031"/><stop stop-opacity="1" stop-color="rgb(41.664124%, 72.991943%, 94.764709%)" offset="0.835937"/><stop stop-opacity="1" stop-color="rgb(41.394043%, 72.866821%, 94.740295%)" offset="0.839844"/><stop stop-opacity="1" stop-color="rgb(41.125488%, 72.743225%, 94.715881%)" offset="0.84375"/><stop stop-opacity="1" stop-color="rgb(40.855408%, 72.618103%, 94.691467%)" offset="0.847656"/><stop stop-opacity="1" stop-color="rgb(40.586853%, 72.492981%, 94.667053%)" offset="0.851563"/><stop stop-opacity="1" stop-color="rgb(40.316772%, 72.367859%, 94.642639%)" offset="0.855469"/><stop stop-opacity="1" stop-color="rgb(40.048218%, 72.244263%, 94.619751%)" offset="0.859375"/><stop stop-opacity="1" stop-color="rgb(39.778137%, 72.119141%, 94.595337%)" offset="0.863281"/><stop stop-opacity="1" stop-color="rgb(39.509583%, 71.995544%, 94.570923%)" offset="0.867188"/><stop stop-opacity="1" stop-color="rgb(39.239502%, 71.870422%, 94.546509%)" offset="0.871094"/><stop stop-opacity="1" stop-color="rgb(38.970947%, 71.7453%, 94.522095%)" offset="0.875"/><stop stop-opacity="1" stop-color="rgb(38.700867%, 71.620178%, 94.497681%)" offset="0.878906"/><stop stop-opacity="1" stop-color="rgb(38.432312%, 71.496582%, 94.474792%)" offset="0.882812"/><stop stop-opacity="1" stop-color="rgb(38.162231%, 71.37146%, 94.450378%)" offset="0.886719"/><stop stop-opacity="1" stop-color="rgb(37.893677%, 71.246338%, 94.425964%)" offset="0.890625"/><stop stop-opacity="1" stop-color="rgb(37.623596%, 71.121216%, 94.40155%)" offset="0.894531"/><stop stop-opacity="1" stop-color="rgb(37.355042%, 70.99762%, 94.377136%)" offset="0.898438"/><stop stop-opacity="1" stop-color="rgb(37.086487%, 70.872498%, 94.352722%)" offset="0.902344"/><stop stop-opacity="1" stop-color="rgb(36.817932%, 70.748901%, 94.328308%)" offset="0.90625"/><stop stop-opacity="1" stop-color="rgb(36.547852%, 70.623779%, 94.303894%)" offset="0.910156"/><stop stop-opacity="1" stop-color="rgb(36.279297%, 70.498657%, 94.281006%)" offset="0.914063"/><stop stop-opacity="1" stop-color="rgb(36.009216%, 70.373535%, 94.256592%)" offset="0.917969"/><stop stop-opacity="1" stop-color="rgb(35.740662%, 70.249939%, 94.232178%)" offset="0.921875"/><stop stop-opacity="1" stop-color="rgb(35.470581%, 70.124817%, 94.207764%)" offset="0.925781"/><stop stop-opacity="1" stop-color="rgb(35.202026%, 69.999695%, 94.18335%)" offset="0.929688"/><stop stop-opacity="1" stop-color="rgb(34.931946%, 69.874573%, 94.158936%)" offset="0.933594"/><stop stop-opacity="1" stop-color="rgb(34.663391%, 69.750977%, 94.136047%)" offset="0.9375"/><stop stop-opacity="1" stop-color="rgb(34.393311%, 69.625854%, 94.111633%)" offset="0.941406"/><stop stop-opacity="1" stop-color="rgb(34.124756%, 69.502258%, 94.087219%)" offset="0.945312"/><stop stop-opacity="1" stop-color="rgb(33.854675%, 69.377136%, 94.062805%)" offset="0.949219"/><stop stop-opacity="1" stop-color="rgb(33.586121%, 69.252014%, 94.038391%)" offset="0.953125"/><stop stop-opacity="1" stop-color="rgb(33.31604%, 69.126892%, 94.013977%)" offset="0.957031"/><stop stop-opacity="1" stop-color="rgb(33.047485%, 69.003296%, 93.991089%)" offset="0.960938"/><stop stop-opacity="1" stop-color="rgb(32.777405%, 68.878174%, 93.966675%)" offset="0.964844"/><stop stop-opacity="1" stop-color="rgb(32.50885%, 68.753052%, 93.942261%)" offset="0.96875"/><stop stop-opacity="1" stop-color="rgb(32.23877%, 68.62793%, 93.917847%)" offset="0.972656"/><stop stop-opacity="1" stop-color="rgb(31.970215%, 68.504333%, 93.893433%)" offset="0.976562"/><stop stop-opacity="1" stop-color="rgb(31.700134%, 68.379211%, 93.869019%)" offset="0.980469"/><stop stop-opacity="1" stop-color="rgb(31.43158%, 68.255615%, 93.84613%)" offset="0.984375"/><stop stop-opacity="1" stop-color="rgb(31.161499%, 68.130493%, 93.821716%)" offset="0.988281"/><stop stop-opacity="1" stop-color="rgb(30.892944%, 68.005371%, 93.797302%)" offset="0.992187"/><stop stop-opacity="1" stop-color="rgb(30.622864%, 67.880249%, 93.772888%)" offset="0.996094"/><stop stop-opacity="1" stop-color="rgb(30.354309%, 67.756653%, 93.748474%)" offset="1"/></linearGradient></defs><rect x="-37.5" width="450" fill="#ffffff" y="-37.499999" height="449.999989" fill-opacity="1"/><rect x="-37.5" width="450" fill="#ffffff" y="-37.499999" height="449.999989" fill-opacity="1"/><rect x="-37.5" width="450" fill="#000000" y="-37.499999" height="449.999989" fill-opacity="1"/><g clip-path="url(#4b6dc6bb13)"><g clip-path="url(#282f4e890e)"><path fill="url(#0af2ffc98c)" d="M 40.558594 79.5 L 40.558594 303.640625 L 334.808594 303.640625 L 334.808594 79.5 Z M 40.558594 79.5 " fill-rule="nonzero"/></g></g><g fill="#faf6f5" fill-opacity="1"><g transform="translate(87.874009, 294.318029)"><g><path d="M 14.65625 0 L 8.625 -8.109375 L 5.5 -4.671875 L 5.5 0 L 2.40625 0 L 2.40625 -18.359375 L 5.5 -18.359375 L 5.5 -8.859375 L 14.265625 -18.359375 L 17.90625 -18.359375 L 10.796875 -10.515625 L 18.375 0 Z M 14.65625 0 "/></g></g></g><g fill="#faf6f5" fill-opacity="1"><g transform="translate(106.697628, 294.318029)"><g><path d="M 3.6875 -15.765625 C 5.5625 -17.546875 7.867188 -18.4375 10.609375 -18.4375 C 13.359375 -18.4375 15.664062 -17.546875 17.53125 -15.765625 C 19.40625 -13.992188 20.34375 -11.796875 20.34375 -9.171875 C 20.34375 -6.554688 19.40625 -4.351562 17.53125 -2.5625 C 15.664062 -0.769531 13.359375 0.125 10.609375 0.125 C 7.867188 0.125 5.5625 -0.769531 3.6875 -2.5625 C 1.820312 -4.351562 0.890625 -6.554688 0.890625 -9.171875 C 0.890625 -11.796875 1.820312 -13.992188 3.6875 -15.765625 Z M 10.640625 -15.65625 C 8.828125 -15.65625 7.269531 -15.03125 5.96875 -13.78125 C 4.675781 -12.53125 4.03125 -10.992188 4.03125 -9.171875 C 4.03125 -7.359375 4.679688 -5.816406 5.984375 -4.546875 C 7.285156 -3.273438 8.835938 -2.640625 10.640625 -2.640625 C 12.441406 -2.640625 13.976562 -3.273438 15.25 -4.546875 C 16.53125 -5.816406 17.171875 -7.359375 17.171875 -9.171875 C 17.171875 -10.992188 16.53125 -12.53125 15.25 -13.78125 C 13.976562 -15.03125 12.441406 -15.65625 10.640625 -15.65625 Z M 10.640625 -15.65625 "/></g></g></g><g fill="#faf6f5" fill-opacity="1"><g transform="translate(127.932518, 294.318029)"><g><path d="M 2.40625 -18.359375 L 9.9375 -18.359375 C 12.675781 -18.359375 14.941406 -17.488281 16.734375 -15.75 C 18.523438 -14.019531 19.421875 -11.828125 19.421875 -9.171875 C 19.421875 -6.515625 18.519531 -4.320312 16.71875 -2.59375 C 14.925781 -0.863281 12.640625 0 9.859375 0 L 2.40625 0 Z M 5.5 -15.578125 L 5.5 -2.78125 L 10.015625 -2.78125 C 11.816406 -2.78125 13.316406 -3.378906 14.515625 -4.578125 C 15.710938 -5.773438 16.3125 -7.296875 16.3125 -9.140625 C 16.3125 -10.992188 15.691406 -12.53125 14.453125 -13.75 C 13.222656 -14.96875 11.703125 -15.578125 9.890625 -15.578125 Z M 5.5 -15.578125 "/></g></g></g><g fill="#faf6f5" fill-opacity="1"><g transform="translate(148.250079, 294.318029)"><g><path d="M 15.515625 -15.578125 L 5.5 -15.578125 L 5.5 -10.625 L 14.46875 -10.625 L 14.46875 -7.84375 L 5.5 -7.84375 L 5.5 -2.78125 L 15.84375 -2.78125 L 15.84375 0 L 2.40625 0 L 2.40625 -18.359375 L 15.515625 -18.359375 Z M 15.515625 -15.578125 "/></g></g></g><g fill="#4cacef" fill-opacity="1"><g transform="translate(165.433888, 294.318029)"><g><path d="M 21.8125 0 L 18.953125 0 L 18.9375 -13.71875 L 13.140625 -1.90625 L 11.109375 -1.90625 L 5.328125 -13.71875 L 5.328125 0 L 2.40625 0 L 2.40625 -18.359375 L 6.078125 -18.359375 L 12.140625 -6.15625 L 18.171875 -18.359375 L 21.8125 -18.359375 Z M 21.8125 0 "/></g></g></g><g fill="#4cacef" fill-opacity="1"><g transform="translate(189.68287, 294.318029)"><g><path d="M 15.515625 -15.578125 L 5.5 -15.578125 L 5.5 -10.625 L 14.46875 -10.625 L 14.46875 -7.84375 L 5.5 -7.84375 L 5.5 -2.78125 L 15.84375 -2.78125 L 15.84375 0 L 2.40625 0 L 2.40625 -18.359375 L 15.515625 -18.359375 Z M 15.515625 -15.578125 "/></g></g></g><g fill="#4cacef" fill-opacity="1"><g transform="translate(206.881518, 294.318029)"><g><path d="M 18.328125 0 L 15.28125 0 L 5.5 -13.15625 L 5.5 0 L 2.40625 0 L 2.40625 -18.359375 L 5.453125 -18.359375 L 15.28125 -5.171875 L 15.28125 -18.359375 L 18.328125 -18.359375 Z M 18.328125 0 "/></g></g></g><g fill="#4cacef" fill-opacity="1"><g transform="translate(227.644646, 294.318029)"><g><path d="M 14.9375 -15.578125 L 9.125 -15.578125 L 9.125 0 L 6.03125 0 L 6.03125 -15.578125 L 0.234375 -15.578125 L 0.234375 -18.359375 L 14.9375 -18.359375 Z M 14.9375 -15.578125 "/></g></g></g><g fill="#4cacef" fill-opacity="1"><g transform="translate(242.825157, 294.318029)"><g><path d="M 18.015625 -18.359375 L 18.015625 -7.609375 C 18.015625 -5.210938 17.304688 -3.320312 15.890625 -1.9375 C 14.472656 -0.5625 12.519531 0.125 10.03125 0.125 C 7.550781 0.125 5.597656 -0.5625 4.171875 -1.9375 C 2.753906 -3.320312 2.046875 -5.210938 2.046875 -7.609375 L 2.046875 -18.359375 L 5.140625 -18.359375 L 5.140625 -7.609375 C 5.140625 -6.066406 5.578125 -4.851562 6.453125 -3.96875 C 7.335938 -3.082031 8.539062 -2.640625 10.0625 -2.640625 C 11.570312 -2.640625 12.757812 -3.078125 13.625 -3.953125 C 14.488281 -4.828125 14.921875 -6.046875 14.921875 -7.609375 L 14.921875 -18.359375 Z M 18.015625 -18.359375 "/></g></g></g><g fill="#4cacef" fill-opacity="1"><g transform="translate(262.854424, 294.318029)"><g><path d="M 21.8125 0 L 18.953125 0 L 18.9375 -13.71875 L 13.140625 -1.90625 L 11.109375 -1.90625 L 5.328125 -13.71875 L 5.328125 0 L 2.40625 0 L 2.40625 -18.359375 L 6.078125 -18.359375 L 12.140625 -6.15625 L 18.171875 -18.359375 L 21.8125 -18.359375 Z M 21.8125 0 "/></g></g></g></svg>