<svg xmlns="http://www.w3.org/2000/svg" xmlns:xlink="http://www.w3.org/1999/xlink" width="500" zoomAndPan="magnify" viewBox="0 0 375 374.999991" height="500" preserveAspectRatio="xMidYMid meet" version="1.0"><defs><g/><clipPath id="fa033bc9b0"><path d="M 47.707031 163.09375 L 329.449219 163.09375 L 329.449219 196.5 L 47.707031 196.5 Z M 47.707031 163.09375 " clip-rule="nonzero"/></clipPath></defs><g fill="#ffffff" fill-opacity="1"><g transform="translate(54.68071, 248.958735)"><g><path d="M 48.421875 -2.71875 C 48.421875 -0.78125 42.351562 0.1875 30.21875 0.1875 L 19.375 -0.390625 C 12.914062 -0.898438 9.6875 -1.800781 9.6875 -3.09375 L 9.6875 -133.078125 C 9.6875 -135.265625 16.140625 -136.359375 29.046875 -136.359375 C 41.960938 -136.359375 48.421875 -135.265625 48.421875 -133.078125 L 48.421875 -83.484375 L 72.0625 -133.078125 C 72.957031 -134.878906 78.117188 -135.78125 87.546875 -135.78125 C 104.722656 -135.78125 113.765625 -134.296875 114.671875 -131.328125 C 114.671875 -131.066406 114.609375 -130.8125 114.484375 -130.5625 L 80.78125 -69.734375 L 119.90625 -15.6875 C 119.90625 -15.425781 118.675781 -14.328125 116.21875 -12.390625 C 110.28125 -7.234375 103.304688 -3.164062 95.296875 -0.1875 C 92.847656 0.707031 90.394531 1.15625 87.9375 1.15625 L 83.296875 0.78125 C 79.160156 -0.257812 75.929688 -2.910156 73.609375 -7.171875 L 51.53125 -49.390625 L 48.421875 -49.390625 Z M 48.421875 -2.71875 "/></g></g></g><g fill="#ffffff" fill-opacity="1"><g transform="translate(153.274816, 248.958735)"><g><path d="M 145.28125 0.1875 C 133.78125 0.1875 128.03125 -1.101562 128.03125 -3.6875 L 123.96875 -81.359375 L 100.34375 -2.71875 C 99.820312 -1.164062 95.425781 -0.390625 87.15625 -0.390625 C 78.894531 -0.390625 74.632812 -1.097656 74.375 -2.515625 L 49.96875 -82.125 L 47.265625 -4.84375 C 47.128906 -2.90625 44.671875 -1.582031 39.890625 -0.875 C 35.117188 -0.164062 31.148438 0.1875 27.984375 0.1875 C 24.828125 0.1875 21.765625 -0.00390625 18.796875 -0.390625 C 12.585938 -1.296875 9.550781 -2.910156 9.6875 -5.234375 L 14.140625 -131.140625 C 14.140625 -134.234375 22.015625 -135.78125 37.765625 -135.78125 C 42.421875 -135.78125 48.101562 -135.425781 54.8125 -134.71875 C 61.53125 -134.007812 65.273438 -132.625 66.046875 -130.5625 L 87.75 -69.546875 L 106.734375 -130.75 C 107.890625 -134.101562 116.800781 -135.78125 133.46875 -135.78125 C 138.238281 -135.78125 143.945312 -135.425781 150.59375 -134.71875 C 157.25 -134.007812 160.578125 -132.75 160.578125 -130.9375 L 166.203125 -3.875 C 166.203125 -2.457031 163.679688 -1.425781 158.640625 -0.78125 C 153.609375 -0.132812 149.15625 0.1875 145.28125 0.1875 Z M 145.28125 0.1875 "/></g></g></g><g clip-path="url(#fa033bc9b0)"><path fill="#000000" d="M 47.707031 163.09375 L 329.273438 163.09375 L 329.273438 196.722656 L 47.707031 196.722656 Z M 47.707031 163.09375 " fill-opacity="1" fill-rule="nonzero"/></g><g fill="#ffffff" fill-opacity="1"><g transform="translate(79.182436, 187.671506)"><g><path d="M 6.140625 -0.34375 C 6.140625 -0.09375 5.367188 0.03125 3.828125 0.03125 L 2.453125 -0.046875 C 1.640625 -0.109375 1.234375 -0.222656 1.234375 -0.390625 L 1.234375 -16.859375 C 1.234375 -17.128906 2.050781 -17.265625 3.6875 -17.265625 C 5.320312 -17.265625 6.140625 -17.128906 6.140625 -16.859375 L 6.140625 -10.578125 L 9.125 -16.859375 C 9.238281 -17.085938 9.894531 -17.203125 11.09375 -17.203125 C 13.257812 -17.203125 14.398438 -17.007812 14.515625 -16.625 C 14.515625 -16.59375 14.507812 -16.5625 14.5 -16.53125 L 10.234375 -8.828125 L 15.1875 -1.984375 C 15.1875 -1.953125 15.03125 -1.8125 14.71875 -1.5625 C 13.96875 -0.914062 13.082031 -0.40625 12.0625 -0.03125 C 11.757812 0.0820312 11.453125 0.140625 11.140625 0.140625 L 10.546875 0.09375 C 10.023438 -0.03125 9.617188 -0.363281 9.328125 -0.90625 L 6.53125 -6.25 L 6.140625 -6.25 Z M 6.140625 -0.34375 "/></g></g></g><g fill="#ffffff" fill-opacity="1"><g transform="translate(102.657232, 187.671506)"><g><path d="M 8.515625 0.25 C 6.222656 0.25 4.351562 -0.5 2.90625 -2 C 1.457031 -3.507812 0.734375 -5.707031 0.734375 -8.59375 C 0.734375 -11.476562 1.460938 -13.664062 2.921875 -15.15625 C 4.390625 -16.644531 6.28125 -17.390625 8.59375 -17.390625 C 10.90625 -17.390625 12.773438 -16.65625 14.203125 -15.1875 C 15.628906 -13.726562 16.34375 -11.515625 16.34375 -8.546875 C 16.34375 -5.578125 15.613281 -3.367188 14.15625 -1.921875 C 12.695312 -0.472656 10.816406 0.25 8.515625 0.25 Z M 8.53125 -12.6875 C 7.75 -12.6875 7.09375 -12.328125 6.5625 -11.609375 C 6.03125 -10.890625 5.765625 -9.878906 5.765625 -8.578125 C 5.765625 -7.273438 6.015625 -6.273438 6.515625 -5.578125 C 7.023438 -4.878906 7.691406 -4.53125 8.515625 -4.53125 C 9.347656 -4.53125 10.019531 -4.878906 10.53125 -5.578125 C 11.050781 -6.285156 11.3125 -7.296875 11.3125 -8.609375 C 11.3125 -9.921875 11.046875 -10.925781 10.515625 -11.625 C 9.984375 -12.332031 9.320312 -12.6875 8.53125 -12.6875 Z M 8.53125 -12.6875 "/></g></g></g><g fill="#ffffff" fill-opacity="1"><g transform="translate(127.996109, 187.671506)"><g><path d="M 1.234375 -1.125 L 1.234375 -15.84375 C 1.234375 -16.25 1.332031 -16.570312 1.53125 -16.8125 C 1.738281 -17.050781 2.003906 -17.171875 2.328125 -17.171875 L 6.421875 -17.171875 C 9.023438 -17.171875 11 -16.515625 12.34375 -15.203125 C 13.695312 -13.898438 14.375 -11.84375 14.375 -9.03125 C 14.375 -3.007812 11.804688 0 6.671875 0 L 2.484375 0 C 1.648438 0 1.234375 -0.375 1.234375 -1.125 Z M 5.9375 -12.515625 L 5.9375 -5.171875 C 5.9375 -4.828125 5.957031 -4.609375 6 -4.515625 C 6.050781 -4.429688 6.203125 -4.390625 6.453125 -4.390625 C 7.347656 -4.390625 8.03125 -4.722656 8.5 -5.390625 C 8.96875 -6.066406 9.203125 -7.1875 9.203125 -8.75 C 9.203125 -10.3125 8.957031 -11.328125 8.46875 -11.796875 C 7.988281 -12.273438 7.226562 -12.515625 6.1875 -12.515625 Z M 5.9375 -12.515625 "/></g></g></g><g fill="#ffffff" fill-opacity="1"><g transform="translate(151.372794, 187.671506)"><g><path d="M 9.203125 -10.359375 C 9.515625 -10.359375 9.671875 -9.785156 9.671875 -8.640625 C 9.671875 -8.296875 9.628906 -7.890625 9.546875 -7.421875 C 9.472656 -6.953125 9.34375 -6.71875 9.15625 -6.71875 L 6.03125 -6.71875 L 6.03125 -4.265625 L 10.546875 -4.265625 C 10.828125 -4.265625 11.015625 -3.90625 11.109375 -3.1875 C 11.160156 -2.875 11.1875 -2.539062 11.1875 -2.1875 C 11.1875 -1.84375 11.132812 -1.390625 11.03125 -0.828125 C 10.9375 -0.273438 10.773438 0 10.546875 0 L 2.15625 0 C 1.539062 0 1.234375 -0.253906 1.234375 -0.765625 L 1.234375 -16.53125 C 1.234375 -16.957031 1.421875 -17.171875 1.796875 -17.171875 L 10.578125 -17.171875 C 10.921875 -17.171875 11.09375 -16.445312 11.09375 -15 C 11.09375 -13.550781 10.921875 -12.828125 10.578125 -12.828125 L 6.03125 -12.828125 L 6.03125 -10.359375 Z M 9.203125 -10.359375 "/></g></g></g><g fill="#ffffff" fill-opacity="1"><g transform="translate(171.732622, 187.671506)"><g><path d="M 18.40625 0.03125 C 16.945312 0.03125 16.21875 -0.132812 16.21875 -0.46875 L 15.703125 -10.296875 L 12.703125 -0.34375 C 12.640625 -0.144531 12.082031 -0.046875 11.03125 -0.046875 C 9.988281 -0.046875 9.453125 -0.132812 9.421875 -0.3125 L 6.328125 -10.40625 L 5.984375 -0.609375 C 5.972656 -0.367188 5.660156 -0.203125 5.046875 -0.109375 C 4.441406 -0.015625 3.9375 0.03125 3.53125 0.03125 C 3.132812 0.03125 2.75 0.00390625 2.375 -0.046875 C 1.59375 -0.160156 1.210938 -0.363281 1.234375 -0.65625 L 1.796875 -16.609375 C 1.796875 -17.003906 2.789062 -17.203125 4.78125 -17.203125 C 5.375 -17.203125 6.09375 -17.15625 6.9375 -17.0625 C 7.789062 -16.96875 8.265625 -16.789062 8.359375 -16.53125 L 11.109375 -8.8125 L 13.515625 -16.5625 C 13.660156 -16.988281 14.789062 -17.203125 16.90625 -17.203125 C 17.507812 -17.203125 18.234375 -17.15625 19.078125 -17.0625 C 19.921875 -16.96875 20.34375 -16.804688 20.34375 -16.578125 L 21.046875 -0.484375 C 21.046875 -0.304688 20.726562 -0.175781 20.09375 -0.09375 C 19.457031 -0.0078125 18.894531 0.03125 18.40625 0.03125 Z M 18.40625 0.03125 "/></g></g></g><g fill="#ffffff" fill-opacity="1"><g transform="translate(202.24678, 187.671506)"><g><path d="M 9.203125 -10.359375 C 9.515625 -10.359375 9.671875 -9.785156 9.671875 -8.640625 C 9.671875 -8.296875 9.628906 -7.890625 9.546875 -7.421875 C 9.472656 -6.953125 9.34375 -6.71875 9.15625 -6.71875 L 6.03125 -6.71875 L 6.03125 -4.265625 L 10.546875 -4.265625 C 10.828125 -4.265625 11.015625 -3.90625 11.109375 -3.1875 C 11.160156 -2.875 11.1875 -2.539062 11.1875 -2.1875 C 11.1875 -1.84375 11.132812 -1.390625 11.03125 -0.828125 C 10.9375 -0.273438 10.773438 0 10.546875 0 L 2.15625 0 C 1.539062 0 1.234375 -0.253906 1.234375 -0.765625 L 1.234375 -16.53125 C 1.234375 -16.957031 1.421875 -17.171875 1.796875 -17.171875 L 10.578125 -17.171875 C 10.921875 -17.171875 11.09375 -16.445312 11.09375 -15 C 11.09375 -13.550781 10.921875 -12.828125 10.578125 -12.828125 L 6.03125 -12.828125 L 6.03125 -10.359375 Z M 9.203125 -10.359375 "/></g></g></g><g fill="#ffffff" fill-opacity="1"><g transform="translate(222.606608, 187.671506)"><g><path d="M 14.671875 -0.546875 C 14.671875 -0.203125 13.898438 -0.03125 12.359375 -0.03125 C 10.828125 -0.03125 9.992188 -0.148438 9.859375 -0.390625 L 5.765625 -8.046875 L 5.765625 -0.421875 C 5.765625 -0.117188 5.007812 0.03125 3.5 0.03125 C 1.988281 0.03125 1.234375 -0.117188 1.234375 -0.421875 L 1.234375 -16.828125 C 1.234375 -17.078125 1.878906 -17.203125 3.171875 -17.203125 C 3.671875 -17.203125 4.257812 -17.15625 4.9375 -17.0625 C 5.625 -16.96875 6.039062 -16.800781 6.1875 -16.5625 L 10.109375 -9 L 10.109375 -16.703125 C 10.109375 -17.015625 10.867188 -17.171875 12.390625 -17.171875 C 13.910156 -17.171875 14.671875 -17.015625 14.671875 -16.703125 Z M 14.671875 -0.546875 "/></g></g></g><g fill="#ffffff" fill-opacity="1"><g transform="translate(246.768174, 187.671506)"><g><path d="M 8.609375 -0.390625 C 8.609375 -0.0664062 7.796875 0.09375 6.171875 0.09375 C 4.554688 0.09375 3.75 -0.0664062 3.75 -0.390625 L 3.75 -12.703125 L 0.8125 -12.703125 C 0.53125 -12.703125 0.332031 -13.078125 0.21875 -13.828125 C 0.164062 -14.191406 0.140625 -14.5625 0.140625 -14.9375 C 0.140625 -15.3125 0.164062 -15.679688 0.21875 -16.046875 C 0.332031 -16.796875 0.53125 -17.171875 0.8125 -17.171875 L 11.484375 -17.171875 C 11.753906 -17.171875 11.945312 -16.796875 12.0625 -16.046875 C 12.113281 -15.679688 12.140625 -15.3125 12.140625 -14.9375 C 12.140625 -14.5625 12.113281 -14.191406 12.0625 -13.828125 C 11.945312 -13.078125 11.753906 -12.703125 11.484375 -12.703125 L 8.609375 -12.703125 Z M 8.609375 -0.390625 "/></g></g></g><g fill="#ffffff" fill-opacity="1"><g transform="translate(267.348747, 187.671506)"><g><path d="M 9.25 -16.6875 C 9.25 -17.007812 10.132812 -17.171875 11.90625 -17.171875 C 13.6875 -17.171875 14.578125 -17.007812 14.578125 -16.6875 L 14.578125 -5.421875 C 14.578125 -3.753906 13.976562 -2.390625 12.78125 -1.328125 C 11.582031 -0.273438 9.929688 0.25 7.828125 0.25 C 5.734375 0.25 4.023438 -0.289062 2.703125 -1.375 C 1.390625 -2.46875 0.734375 -3.941406 0.734375 -5.796875 L 0.734375 -16.65625 C 0.734375 -16.976562 1.617188 -17.140625 3.390625 -17.140625 C 5.171875 -17.140625 6.0625 -16.976562 6.0625 -16.65625 L 6.0625 -5.59375 C 6.0625 -5.269531 6.234375 -5.007812 6.578125 -4.8125 C 6.929688 -4.613281 7.304688 -4.515625 7.703125 -4.515625 C 8.097656 -4.515625 8.453125 -4.601562 8.765625 -4.78125 C 9.085938 -4.957031 9.25 -5.226562 9.25 -5.59375 Z M 9.25 -16.6875 "/></g></g></g><g fill="#ffffff" fill-opacity="1"><g transform="translate(291.019773, 187.671506)"><g><path d="M 18.40625 0.03125 C 16.945312 0.03125 16.21875 -0.132812 16.21875 -0.46875 L 15.703125 -10.296875 L 12.703125 -0.34375 C 12.640625 -0.144531 12.082031 -0.046875 11.03125 -0.046875 C 9.988281 -0.046875 9.453125 -0.132812 9.421875 -0.3125 L 6.328125 -10.40625 L 5.984375 -0.609375 C 5.972656 -0.367188 5.660156 -0.203125 5.046875 -0.109375 C 4.441406 -0.015625 3.9375 0.03125 3.53125 0.03125 C 3.132812 0.03125 2.75 0.00390625 2.375 -0.046875 C 1.59375 -0.160156 1.210938 -0.363281 1.234375 -0.65625 L 1.796875 -16.609375 C 1.796875 -17.003906 2.789062 -17.203125 4.78125 -17.203125 C 5.375 -17.203125 6.09375 -17.15625 6.9375 -17.0625 C 7.789062 -16.96875 8.265625 -16.789062 8.359375 -16.53125 L 11.109375 -8.8125 L 13.515625 -16.5625 C 13.660156 -16.988281 14.789062 -17.203125 16.90625 -17.203125 C 17.507812 -17.203125 18.234375 -17.15625 19.078125 -17.0625 C 19.921875 -16.96875 20.34375 -16.804688 20.34375 -16.578125 L 21.046875 -0.484375 C 21.046875 -0.304688 20.726562 -0.175781 20.09375 -0.09375 C 19.457031 -0.0078125 18.894531 0.03125 18.40625 0.03125 Z M 18.40625 0.03125 "/></g></g></g></svg>